<?xml version="1.0" standalone="no"?>
<!DOCTYPE svg PUBLIC "-//W3C//DTD SVG 20010904//EN"
 "http://www.w3.org/TR/2001/REC-SVG-20010904/DTD/svg10.dtd">
<svg version="1.0" xmlns="http://www.w3.org/2000/svg"
 width="1024.000000pt" height="1024.000000pt" viewBox="0 0 1024.000000 1024.000000"
 preserveAspectRatio="xMidYMid meet">
<metadata>
Created by potrace 1.11, written by Peter Selinger 2001-2013
</metadata>
<g transform="translate(0.000000,1024.000000) scale(0.100000,-0.100000)"
fill="#000000" stroke="none">
<path d="M5115 9875 c-53 -15 -125 -48 -125 -57 0 -5 -8 -8 -18 -8 -10 0 -22
-4 -27 -9 -6 -4 -32 -14 -60 -20 -27 -7 -61 -18 -75 -24 -28 -13 -142 -87
-150 -97 -3 -4 -95 -67 -205 -140 -215 -144 -285 -205 -358 -315 -25 -38 -62
-89 -81 -111 -38 -44 -109 -84 -150 -84 -14 0 -28 -4 -31 -10 -3 -5 -16 -10
-27 -10 -32 0 -83 -62 -117 -143 -47 -113 -81 -264 -106 -469 -6 -43 -9 -48
-31 -48 -14 0 -33 4 -42 9 -9 5 -38 12 -65 15 -38 6 -48 4 -53 -8 -9 -23 34
-75 120 -145 86 -70 132 -125 141 -167 7 -29 7 -29 -29 11 -107 118 -107 118
-164 90 -125 -63 -225 -328 -180 -479 15 -49 97 -136 128 -136 12 0 30 -5 41
-10 18 -10 19 -25 19 -308 1 -308 15 -514 45 -632 47 -189 61 -237 106 -373
46 -139 117 -298 173 -385 38 -59 73 -100 216 -251 74 -78 151 -165 173 -194
55 -75 86 -101 137 -116 25 -7 68 -22 95 -32 123 -45 270 -87 380 -110 90 -18
383 -15 470 5 39 9 85 19 103 23 18 3 35 10 38 14 3 5 14 9 25 9 10 0 27 4 37
9 9 5 51 26 92 45 112 54 157 82 246 152 192 149 283 268 410 531 207 430 279
610 329 818 42 176 49 242 49 465 0 298 -28 434 -136 654 -26 55 -48 104 -48
110 0 6 13 17 28 24 45 19 57 54 55 151 -3 169 -77 315 -201 396 l-44 29 45
40 c25 23 50 50 55 61 22 46 -28 92 -78 72 -66 -26 -130 -60 -185 -97 l-60
-40 -9 36 c-6 26 -4 47 9 79 9 25 14 53 11 63 -4 11 -34 43 -69 72 -34 29
-109 97 -166 152 -94 89 -182 148 -221 148 -6 0 -18 4 -28 9 -9 5 -51 19 -92
32 -80 24 -108 39 -73 39 56 0 224 101 311 187 50 49 64 84 41 99 -6 3 -79
-28 -162 -70 -84 -42 -161 -76 -172 -76 -11 0 -29 7 -39 15 -18 14 -18 15 -2
15 9 0 50 14 90 30 72 30 186 118 186 144 0 22 -70 37 -115 25 -114 -30 -123
-33 -214 -78 -35 -17 -66 -30 -68 -28 -1 2 21 20 49 40 112 77 211 190 206
234 -3 25 -6 28 -38 26 -19 -2 -51 -7 -70 -12 -19 -5 -55 -15 -80 -21 -137
-37 -195 -69 -380 -213 -8 -7 -29 -19 -45 -27 -17 -8 -34 -16 -39 -19 -26 -13
18 30 142 136 187 161 214 189 210 220 -5 38 -34 52 -83 38z m-456 -410 c-46
-47 -84 -91 -84 -98 0 -6 10 -13 22 -15 32 -5 250 53 397 104 l70 24 -23 -24
c-16 -17 -21 -31 -16 -45 8 -26 21 -26 79 -1 79 34 50 12 -46 -35 -94 -45
-168 -59 -184 -34 -8 14 -163 -2 -209 -20 -11 -5 -40 -15 -65 -22 -25 -7 -49
-16 -54 -21 -19 -16 -26 -7 -26 32 0 34 -4 41 -24 46 -14 3 -31 3 -38 -1 -24
-12 45 40 161 121 64 45 118 80 120 78 3 -2 -33 -42 -80 -89z m566 -5 c-3 -5
-12 -10 -18 -10 -7 0 -6 4 3 10 19 12 23 12 15 0z m-765 -195 c0 -3 -12 -28
-27 -55 -40 -72 -27 -75 125 -28 330 103 302 98 302 60 0 -48 20 -56 165 -67
159 -12 271 -43 383 -108 172 -98 450 -388 523 -545 20 -42 20 -44 2 -57 -31
-23 -180 -95 -196 -95 -9 0 -18 -4 -21 -9 -3 -5 -18 -11 -33 -14 -16 -4 -50
-11 -78 -17 -113 -25 -233 -43 -385 -59 -52 -6 -104 -12 -115 -15 -11 -3 -79
-7 -150 -10 l-131 -6 -96 94 c-102 98 -252 207 -378 273 -169 89 -241 103
-285 58 -60 -59 -18 -106 157 -175 204 -81 369 -165 417 -212 22 -23 41 -46
41 -53 0 -49 -335 -87 -588 -67 -81 7 -189 12 -241 12 -92 0 -93 0 -87 23 4
12 9 40 12 62 3 22 9 57 14 78 23 87 33 123 40 142 4 11 13 36 20 55 46 133
177 379 245 457 5 7 33 39 60 71 67 78 137 134 221 177 68 34 84 40 84 30z
m-577 -433 c-9 -20 -35 -62 -58 -92 -57 -76 -55 -70 -65 -157 -8 -77 -44 -193
-59 -193 -10 0 -1 110 10 132 5 9 9 28 9 42 0 14 4 35 9 48 5 13 14 41 20 63
22 71 54 129 94 168 46 44 63 40 40 -11z m2239 -377 c-8 -55 -42 -81 -70 -53
-31 31 1 80 48 75 19 -1 24 -7 22 -22z m152 -112 c36 -36 86 -128 86 -158 0
-7 5 -17 10 -20 6 -3 10 -28 10 -55 0 -54 -22 -74 -46 -43 -13 19 -114 286
-114 303 0 19 17 10 54 -27z m-268 -42 c30 -18 31 -21 42 -133 7 -63 12 -145
12 -182 0 -37 4 -75 9 -84 5 -10 11 -37 12 -62 l4 -45 -130 -7 c-72 -4 -235
-10 -362 -14 l-233 -6 0 205 c0 186 2 205 18 212 9 3 69 22 132 41 63 19 124
39 135 44 11 5 45 14 75 21 30 6 69 15 85 20 61 15 168 10 201 -10z m178 -155
c31 -48 52 -92 63 -131 21 -76 33 -135 33 -163 0 -15 7 -45 14 -67 13 -38 17
-40 55 -41 23 0 43 -3 46 -6 6 -6 -28 -83 -70 -158 -24 -43 -25 -51 -21 -175
4 -130 12 -201 25 -220 4 -5 13 -29 20 -51 18 -55 53 -99 73 -91 18 6 17 38
-2 172 -14 99 -15 178 0 204 24 46 35 5 42 -157 8 -191 0 -590 -12 -611 -5 -9
-10 -11 -11 -6 -8 78 -32 135 -56 135 -19 0 -43 -41 -43 -72 0 -10 -28 -47
-62 -82 -85 -85 -99 -104 -141 -191 -11 -22 -23 -48 -28 -57 -5 -10 -9 -40 -9
-68 0 -46 2 -50 24 -50 36 0 79 51 127 151 41 85 44 89 76 89 42 0 42 0 -3
-105 -7 -16 -20 -50 -30 -74 -34 -86 -206 -416 -224 -431 -4 -3 -9 -12 -12
-20 -11 -30 -157 -217 -227 -292 -78 -83 -191 -170 -291 -224 -34 -19 -64 -34
-68 -34 -3 0 8 15 25 33 72 75 109 213 67 248 -14 11 -20 9 -43 -19 l-26 -33
-40 41 c-105 109 -213 103 -159 -8 10 -21 20 -67 22 -107 6 -116 47 -174 114
-161 46 9 23 -7 -47 -33 -33 -13 -69 -26 -80 -30 -41 -16 -89 -31 -91 -28 -1
1 8 34 22 72 31 91 33 215 3 215 -5 0 -27 -16 -49 -36 -32 -29 -45 -35 -67
-31 -16 4 -53 11 -84 18 -72 15 -97 8 -154 -41 -58 -50 -85 -51 -165 -4 -59
34 -94 39 -86 12 3 -7 7 -52 11 -100 5 -76 4 -88 -9 -88 -13 0 -16 13 -16 71
0 90 -9 104 -154 237 -32 28 -61 52 -66 52 -18 0 -19 -36 -4 -122 8 -49 13
-92 11 -95 -7 -6 -67 83 -67 99 0 8 -5 19 -10 24 -6 6 -11 40 -11 77 -1 72 -8
83 -54 89 -28 3 -30 6 -27 38 2 19 8 39 13 45 5 5 9 23 9 40 0 17 4 35 9 41 5
5 11 27 14 49 4 22 11 65 17 95 30 157 21 278 -22 301 -20 11 -31 3 -61 -43
-14 -22 -25 -28 -53 -28 -72 0 -123 -52 -124 -127 -1 -15 -6 -57 -13 -93 l-13
-65 -42 73 c-24 39 -47 72 -52 72 -10 0 -29 -62 -31 -100 -1 -14 -4 -36 -8
-50 -7 -24 -8 -24 -25 15 -10 22 -21 49 -26 60 -4 11 -12 32 -19 48 -6 15 -15
38 -21 52 -5 14 -14 35 -19 48 -5 12 -17 44 -27 70 l-17 48 28 29 c16 17 32
27 36 23 4 -5 9 -30 12 -58 9 -82 26 -105 80 -105 39 0 60 32 54 82 -5 40 -9
59 -38 171 -6 23 -16 88 -22 144 -7 71 -15 104 -25 108 -8 3 -42 0 -77 -6 -77
-15 -108 -8 -124 28 -7 16 -17 36 -22 45 -5 10 -9 28 -9 41 0 13 -4 27 -9 32
-15 17 -20 105 -6 105 21 0 75 -69 75 -96 0 -42 18 -64 52 -64 69 0 90 61 36
104 l-32 25 22 24 c34 36 28 67 -24 117 -55 54 -67 76 -83 155 -20 95 -33 138
-53 167 -19 28 -24 93 -8 103 6 3 10 17 10 30 0 13 5 27 10 30 6 3 10 15 10
25 0 19 12 17 85 -11 11 -4 31 -10 45 -14 14 -3 41 -11 60 -16 143 -42 246
-53 480 -52 279 1 311 5 353 47 42 42 57 102 57 228 0 177 24 332 58 371 34
38 135 69 228 69 61 0 81 -4 117 -25 83 -49 131 -160 141 -327 9 -150 38 -185
134 -160 71 19 115 32 137 41 11 5 173 10 360 12 l340 2 14 30 c13 28 12 36
-13 105 -44 119 -56 169 -63 263 -6 92 1 108 31 63z m-2024 -120 c113 0 234 4
270 8 62 8 67 7 96 -18 50 -41 60 -94 44 -234 -7 -64 -16 -133 -21 -152 -5
-19 -9 -50 -9 -68 l0 -33 -272 4 c-344 5 -394 15 -470 95 -55 59 -69 129 -47
246 14 75 33 120 62 147 20 19 28 20 82 13 33 -5 152 -8 265 -8z m-600 -61
c17 -20 6 -92 -44 -304 -9 -35 -17 -66 -20 -68 -9 -9 -48 25 -74 64 -23 33
-26 48 -25 118 0 64 5 88 23 120 42 75 108 108 140 70z m81 -290 l-11 -40 5
49 c3 27 6 65 7 85 1 32 2 31 5 -9 2 -25 -1 -63 -6 -85z m70 -1145 c22 -12 24
-41 8 -107 l-12 -45 -12 38 c-18 54 -25 124 -13 124 5 0 18 -5 29 -10z m485
-434 c-3 -14 -11 -57 -16 -98 -16 -111 -23 -133 -48 -136 -14 -2 -25 3 -29 14
-6 16 9 96 26 139 16 40 35 80 44 93 16 21 30 13 23 -12z m-154 -268 c36 -21
87 -70 93 -89 9 -27 -4 -59 -23 -59 -42 0 -163 123 -147 150 9 14 51 12 77 -2z
m1008 -566 c22 -22 40 -44 40 -50 0 -8 -23 -12 -67 -12 -68 0 -143 15 -143 28
0 4 9 22 20 40 17 28 25 32 64 32 39 0 51 -6 86 -38z"/>
<path d="M5188 8929 c-22 -12 -43 -57 -64 -134 -8 -33 -20 -76 -25 -95 -6 -19
-14 -48 -18 -65 -10 -36 -39 -109 -74 -185 -41 -90 -46 -114 -31 -135 13 -17
18 -18 60 -7 102 28 228 139 278 247 49 103 56 187 26 269 -33 88 -101 135
-152 105z"/>
<path d="M5651 8101 c-26 -24 -31 -37 -31 -73 1 -48 16 -73 56 -94 35 -18 59
-18 90 2 30 21 57 80 48 108 -10 31 -37 65 -51 66 -7 0 -13 5 -13 10 0 6 -15
10 -34 10 -24 0 -43 -9 -65 -29z"/>
<path d="M4833 7737 c-30 -16 -51 -64 -74 -172 -6 -27 -15 -68 -21 -90 -5 -22
-13 -62 -18 -90 -4 -27 -13 -77 -19 -110 -21 -105 -41 -268 -41 -327 0 -74 23
-162 56 -209 35 -51 81 -72 142 -64 54 7 119 23 144 36 10 5 24 9 32 9 8 0 33
10 56 22 84 45 111 96 72 131 -34 31 -108 15 -240 -51 l-78 -40 -14 74 c-23
130 19 487 92 782 20 81 20 83 2 97 -22 17 -60 17 -91 2z"/>
<path d="M5223 6675 c-3 -9 -2 -33 2 -53 17 -88 22 -122 18 -122 -2 0 -19 11
-37 25 -83 63 -152 70 -234 23 -48 -27 -69 -32 -139 -36 -72 -4 -86 -8 -108
-30 -21 -20 -25 -34 -25 -81 0 -74 18 -101 68 -101 27 0 50 10 87 38 96 71 74
68 340 43 132 -13 176 -9 216 20 34 24 42 24 63 0 19 -21 91 -58 121 -63 12
-2 42 -35 73 -81 76 -110 143 -156 227 -157 29 0 31 -2 27 -35 -2 -19 -8 -38
-13 -41 -5 -3 -9 -16 -9 -30 0 -38 -24 -105 -36 -100 -6 2 -41 7 -77 11 l-67
7 0 -70 0 -70 -52 -57 -52 -57 20 -36 c24 -45 60 -60 103 -42 39 16 81 84 81
130 0 28 12 44 84 114 103 99 146 178 154 286 7 103 -2 132 -61 196 -62 69
-96 84 -182 84 -37 0 -76 5 -88 11 -12 7 -72 60 -134 120 -61 59 -120 112
-131 118 -23 12 -26 9 -52 -47 l-15 -33 -79 66 c-43 36 -80 65 -82 65 -3 0 -7
-7 -11 -15z"/>
<path d="M4439 6457 c-103 -30 -113 -39 -105 -102 11 -96 82 -245 116 -245 26
0 50 53 50 109 0 39 6 53 35 86 86 98 87 177 3 174 -13 0 -57 -10 -99 -22z"/>
<path d="M4895 6315 c-184 -62 -371 -207 -423 -328 -17 -39 -15 -103 4 -132
33 -50 124 -54 124 -5 0 10 5 22 10 25 6 3 10 17 10 30 0 59 76 156 151 192
82 39 100 43 179 43 154 0 319 -66 452 -182 80 -70 117 -94 155 -102 42 -9 70
6 87 49 43 101 -78 237 -312 351 -173 84 -308 102 -437 59z"/>
<path d="M4166 7915 c-10 -8 -23 -16 -28 -17 -5 -2 -15 -21 -22 -43 -12 -34
-12 -45 0 -75 16 -36 29 -48 79 -66 23 -9 36 -8 57 2 42 21 68 55 68 86 0 36
-35 90 -73 111 -35 21 -56 21 -81 2z"/>
<path d="M6576 6537 c-53 -49 -50 -88 10 -150 25 -26 66 -61 92 -79 26 -17 49
-35 50 -40 2 -4 10 -8 17 -8 7 0 15 -4 17 -8 2 -5 31 -28 66 -51 35 -23 93
-65 130 -92 37 -27 78 -57 91 -67 13 -9 29 -22 35 -27 6 -6 74 -57 151 -115
77 -57 142 -107 145 -111 3 -3 73 -56 155 -117 83 -62 155 -115 160 -120 6 -4
26 -19 45 -32 19 -13 40 -29 46 -35 7 -5 65 -48 129 -95 443 -319 610 -475
688 -642 46 -98 58 -154 58 -268 0 -92 -11 -151 -46 -255 -46 -133 -259 -557
-395 -785 -57 -97 -197 -303 -240 -353 -10 -12 -46 -58 -81 -102 -35 -44 -70
-87 -79 -95 -8 -8 -44 -49 -80 -90 -36 -41 -72 -82 -80 -90 -16 -15 -104 -118
-133 -155 -9 -11 -36 -45 -61 -76 -24 -31 -53 -71 -64 -90 -41 -72 -64 -109
-68 -109 -3 0 -12 17 -20 37 -31 74 -46 108 -57 128 -6 11 -22 43 -37 70 -69
130 -207 273 -332 344 -21 11 -55 31 -75 43 -68 39 -174 88 -234 109 -34 11
-39 10 -83 -20 -25 -18 -53 -43 -62 -55 -22 -35 -129 -110 -172 -120 -47 -12
-308 -14 -319 -3 -10 11 -1 19 213 162 190 126 292 216 319 281 40 94 1 202
-96 265 -109 70 -235 75 -324 15 -55 -38 -256 -253 -354 -382 -232 -301 -257
-338 -350 -529 -34 -71 -49 -103 -82 -180 -4 -11 -18 -50 -30 -87 -22 -66 -22
-68 -4 -88 10 -11 27 -20 37 -20 35 0 140 118 182 205 101 209 390 639 498
741 109 103 186 142 298 151 l55 4 -31 -28 c-17 -15 -46 -39 -64 -53 -18 -14
-38 -29 -44 -35 -6 -5 -38 -30 -71 -55 -33 -25 -62 -47 -65 -50 -3 -3 -45 -38
-93 -79 -120 -101 -204 -203 -354 -426 -149 -224 -196 -329 -172 -387 24 -57
71 -55 128 6 25 27 59 34 77 16 6 -6 94 -53 195 -103 101 -51 218 -113 259
-137 75 -43 190 -143 190 -164 0 -6 -28 -26 -63 -45 -34 -18 -94 -51 -134 -72
-122 -67 -264 -91 -638 -109 -577 -28 -1011 4 -1655 122 -49 9 -196 42 -242
55 -10 2 -18 9 -18 14 0 18 83 89 188 160 95 65 282 169 304 169 4 0 27 9 51
19 23 10 53 22 67 26 14 3 41 11 60 16 179 52 293 67 570 79 219 9 254 12 325
32 77 22 130 81 93 104 -24 15 -169 42 -286 54 -265 27 -782 -69 -1042 -193
-134 -64 -217 -127 -387 -295 -56 -56 -114 -104 -128 -108 -33 -8 -72 12 -89
45 -31 58 37 200 156 323 53 54 201 160 268 190 99 45 130 58 185 78 33 12 72
25 88 27 15 3 30 9 33 14 3 5 18 9 34 9 16 0 31 4 34 9 3 5 20 11 38 14 18 3
53 11 78 17 74 18 118 28 280 61 25 5 79 14 120 20 70 10 78 9 117 -12 45 -25
71 -23 208 15 43 13 81 16 135 12 199 -15 324 -17 345 -6 23 12 45 49 45 75 0
8 -13 29 -30 48 -45 52 -103 62 -312 53 -466 -20 -545 -27 -653 -56 -22 -6
-56 -15 -75 -20 -35 -9 -82 -22 -150 -41 -19 -6 -51 -14 -70 -19 -19 -5 -51
-13 -70 -19 -95 -27 -133 -37 -230 -61 -175 -43 -230 -43 -506 -4 -37 5 -41 9
-53 49 -7 24 -20 51 -30 61 -9 11 -27 35 -41 54 -13 19 -27 37 -30 40 -3 3
-39 43 -80 90 -41 47 -82 92 -90 100 -8 8 -35 40 -60 70 -25 30 -47 57 -51 60
-11 10 -65 95 -75 120 -33 77 -33 114 1 195 9 20 96 154 120 184 8 9 35 43 61
76 147 186 234 266 289 268 67 2 67 2 74 -325 7 -300 11 -325 50 -355 19 -15
57 -17 66 -4 3 6 11 169 17 364 13 403 8 462 -45 499 -42 30 -156 18 -250 -27
-47 -22 -169 -141 -231 -225 -26 -36 -52 -72 -59 -80 -139 -176 -280 -378
-306 -435 -7 -16 -17 -38 -22 -47 -5 -10 -9 -48 -9 -85 l0 -66 82 -76 c109
-100 198 -192 198 -204 0 -20 92 -145 159 -217 39 -42 83 -102 100 -135 47
-96 54 -100 186 -98 62 0 122 6 134 12 48 26 6 -20 -110 -118 -105 -90 -163
-154 -197 -222 -40 -78 -48 -89 -90 -118 -52 -36 -65 -79 -58 -196 10 -182 37
-452 52 -523 3 -18 2 -32 -3 -32 -17 0 -343 395 -343 415 0 4 -13 25 -28 48
-45 66 -46 75 -13 126 17 25 41 57 53 71 13 14 57 64 98 110 41 47 82 92 90
100 9 8 40 44 70 80 30 36 58 67 61 70 27 24 70 105 67 127 -4 38 -30 51 -64
33 -52 -28 -298 -280 -438 -450 -43 -52 -99 -120 -125 -151 -59 -72 -111 -109
-151 -109 -43 0 -260 121 -398 222 -93 68 -213 198 -248 269 -66 135 -78 195
-77 404 2 243 33 467 103 732 37 137 149 475 186 561 8 17 21 47 29 66 8 19
15 37 15 41 0 7 39 98 86 203 13 29 24 55 24 57 0 2 14 35 31 72 17 38 39 86
49 108 51 117 159 337 229 468 80 151 224 324 331 397 19 13 37 27 40 30 6 7
57 40 85 56 11 6 40 23 65 37 49 29 362 185 423 211 20 9 52 22 70 30 17 8 50
20 72 27 94 28 125 50 125 89 0 49 -32 65 -124 64 -48 0 -100 -7 -129 -17 -69
-25 -254 -117 -323 -163 -33 -22 -67 -43 -76 -49 -77 -47 -261 -181 -323 -235
-116 -101 -262 -267 -308 -351 -7 -13 -28 -51 -47 -84 -19 -33 -43 -73 -52
-90 -37 -66 -237 -474 -305 -625 -14 -30 -38 -82 -53 -115 -15 -33 -35 -76
-43 -95 -8 -19 -25 -57 -37 -85 -30 -67 -50 -116 -60 -140 -4 -11 -12 -32 -19
-47 -6 -16 -15 -38 -20 -50 -4 -13 -13 -34 -19 -48 -5 -14 -15 -41 -22 -60 -7
-19 -16 -44 -20 -55 -4 -11 -13 -36 -20 -55 -7 -19 -16 -44 -20 -55 -4 -11
-13 -40 -20 -65 -6 -25 -16 -53 -21 -62 -5 -10 -9 -29 -9 -42 0 -14 -4 -27 -9
-30 -5 -3 -11 -20 -14 -38 -3 -18 -11 -55 -17 -83 -30 -144 -54 -347 -54 -475
-1 -96 12 -254 24 -302 32 -123 36 -136 62 -195 16 -35 100 -160 130 -193 25
-27 136 -118 233 -190 33 -25 62 -48 65 -51 3 -3 48 -34 100 -69 52 -35 97
-67 98 -72 2 -4 8 -8 14 -8 5 0 28 -13 51 -28 43 -28 69 -41 122 -61 34 -13
90 4 115 33 7 9 21 16 31 16 18 0 58 -18 69 -31 3 -3 16 -12 30 -19 22 -12 97
-67 110 -80 3 -3 21 -17 40 -30 19 -13 37 -27 40 -30 3 -3 30 -25 60 -50 30
-25 75 -64 100 -88 77 -72 115 -95 139 -83 29 16 65 13 87 -6 11 -10 49 -43
84 -73 36 -30 67 -57 70 -60 35 -38 310 -243 409 -305 8 -5 41 -27 72 -47 154
-101 468 -261 644 -328 118 -45 162 -52 325 -47 164 5 212 12 370 55 40 11
125 39 155 51 11 5 31 13 45 19 43 17 253 121 299 148 51 29 194 124 201 134
3 3 28 22 55 40 51 35 238 216 289 280 89 113 210 314 350 586 19 38 56 99 81
135 106 153 117 184 109 299 -16 213 -164 435 -361 542 -63 33 -66 48 -11 48
24 0 85 5 135 12 91 12 94 13 165 70 86 68 108 71 192 28 88 -44 214 -154 282
-246 16 -22 31 -41 35 -44 14 -13 87 -130 108 -175 13 -27 27 -58 32 -67 5
-10 9 -36 9 -58 0 -65 -72 -131 -245 -225 -154 -83 -230 -133 -289 -190 -66
-64 -106 -134 -106 -188 0 -37 24 -77 47 -77 13 0 68 33 83 50 3 3 39 34 80
70 41 36 77 67 80 70 3 3 19 16 36 30 93 76 138 104 264 167 41 20 77 40 80
43 3 3 26 21 51 39 25 19 61 55 80 80 18 25 37 48 40 51 7 5 89 140 89 145 0
2 26 45 57 97 86 141 175 256 298 381 74 77 230 252 260 292 17 22 32 42 35
45 3 3 17 21 30 40 13 19 27 37 30 40 14 11 70 99 70 109 0 6 4 11 9 11 5 0
11 8 14 18 4 9 18 37 33 62 54 91 96 170 218 415 131 265 145 294 171 365 9
25 21 54 25 65 21 52 37 106 52 180 14 70 22 334 10 359 -47 103 -97 198 -113
215 -10 11 -19 23 -19 26 0 14 -168 183 -240 241 -19 16 -37 31 -40 35 -9 10
-211 161 -320 239 -188 133 -392 280 -525 380 -77 58 -390 308 -455 363 -262
225 -440 357 -481 357 -9 0 -33 -15 -53 -33z m-356 -3089 c-25 -12 -58 -24
-75 -28 -16 -4 -39 -11 -50 -15 -18 -7 -19 -6 -5 8 26 29 94 56 135 56 l40 -1
-45 -20z m-369 -657 c-13 -24 -59 -57 -68 -48 -3 3 9 25 27 47 21 26 36 38 42
32 6 -6 6 -18 -1 -31z m97 -170 c9 -5 31 -15 47 -22 119 -52 316 -257 380
-397 15 -31 31 -65 36 -74 5 -10 9 -27 9 -37 0 -11 5 -23 10 -26 6 -3 10 -17
10 -31 0 -14 4 -34 10 -44 5 -10 10 -45 11 -78 1 -49 -3 -67 -22 -94 -59 -83
-79 -94 -100 -56 -9 17 -8 28 6 55 16 30 23 33 62 33 39 0 43 2 43 25 0 37
-99 174 -162 225 -31 25 -80 58 -110 74 -134 73 -359 185 -415 207 -60 23 -63
26 -63 57 0 59 57 141 122 177 27 15 101 19 126 6z m-363 -259 c-13 -13 -27
18 -20 45 l8 28 9 -34 c5 -18 7 -36 3 -39z m-2445 -452 c13 -34 35 -78 51
-100 30 -41 137 -120 163 -120 8 0 17 -4 20 -9 3 -5 18 -11 33 -14 16 -4 51
-11 78 -17 48 -11 81 -16 263 -39 45 -6 119 -16 165 -22 179 -23 215 -28 287
-39 483 -72 721 -94 1040 -94 250 0 411 13 533 44 91 24 123 33 142 40 11 4
54 18 95 30 41 12 83 26 92 31 10 5 27 9 37 9 11 0 23 5 26 10 3 6 16 10 29
10 12 0 26 4 32 9 5 4 26 11 46 14 l37 6 -16 -42 c-9 -23 -34 -71 -55 -106
-21 -34 -38 -65 -38 -68 0 -5 -60 -93 -70 -103 -3 -3 -30 -34 -60 -69 -53 -63
-200 -209 -290 -287 -176 -155 -413 -305 -605 -384 -110 -45 -117 -47 -145
-55 -14 -3 -41 -11 -60 -16 -101 -27 -197 -39 -312 -39 -279 0 -416 63 -1065
493 -388 257 -446 330 -498 637 -17 99 -26 162 -34 233 -5 43 -12 81 -15 84
-9 9 27 32 50 33 17 0 26 -12 44 -60z m-650 -162 c0 -6 11 -26 25 -44 14 -18
25 -35 25 -38 0 -10 -55 -7 -89 5 -38 13 -38 22 -5 66 24 31 44 36 44 11z"/>
<path d="M6724 4705 c-40 -18 -104 -92 -104 -121 0 -14 17 -36 48 -62 51 -43
95 -119 117 -202 44 -165 57 -276 71 -600 7 -164 17 -211 50 -244 15 -15 13
-23 -23 -99 -22 -45 -45 -102 -52 -127 -7 -25 -17 -59 -22 -76 -28 -94 16
-180 67 -129 17 17 74 122 74 137 0 6 22 56 49 112 63 129 145 253 335 504 81
107 209 277 319 423 42 56 77 133 77 171 0 75 -99 128 -236 128 -63 0 -115 10
-156 31 -10 5 -25 9 -33 9 -8 0 -23 4 -33 9 -32 16 -80 36 -177 71 -33 12 -69
25 -80 30 -11 4 -40 13 -65 20 -25 6 -59 16 -76 21 -43 13 -113 10 -150 -6z
m350 -209 c127 -43 394 -137 428 -151 18 -7 18 -5 -19 -95 -22 -52 -61 -127
-123 -235 -27 -48 -120 -188 -129 -195 -4 -3 -14 -14 -22 -26 -38 -57 -219
-247 -227 -239 -6 6 -14 102 -33 380 -13 201 -22 605 -13 605 4 0 66 -20 138
-44z m531 -116 c0 -22 -29 -18 -33 3 -3 14 1 18 15 15 10 -2 18 -10 18 -18z"/>
<path d="M5053 2275 c-55 -15 -128 -48 -153 -68 -43 -34 -60 -70 -60 -127 0
-49 5 -65 33 -106 41 -61 90 -99 157 -124 59 -22 135 -26 145 -10 4 6 1 19 -7
29 -7 10 -41 56 -75 101 -35 45 -63 86 -63 91 0 21 21 59 32 59 7 0 31 -16 53
-36 54 -48 114 -88 150 -101 76 -27 115 -35 140 -29 60 15 41 51 -118 219
-115 122 -134 130 -234 102z"/>
<path d="M4045 2061 c-51 -23 -92 -65 -100 -102 -13 -58 61 -148 146 -177 30
-10 42 -10 73 3 69 29 124 102 112 150 -9 36 -82 113 -124 131 -43 18 -57 17
-107 -5z m92 -136 c-30 -27 -61 -32 -73 -13 -11 17 25 38 65 38 l36 -1 -28
-24z"/>
<path d="M4677 1890 c-88 -55 -70 -118 51 -181 l43 -23 47 26 c26 14 55 39 66
57 18 31 18 31 -9 66 -25 33 -109 85 -138 85 -7 0 -34 -13 -60 -30z"/>
</g>
</svg>
